# xmcd
#
# Track frame offsets:
#	150
#	15013
#	26172
#	38623
#	50496
#	63670
#	76608
#	83223
#	95541
#	110610
#	122055
#	131449
#	142626
#	158663
#	170387
#	183057
#	207443
#	216309
#	229591
#	245702
#
# Disc length: 3448 seconds
#
# Revision: 2
# Processed by: cddbd v1.5.1PL2 Copyright (c) Steve Scherf et al.
# Submitted via: audiograbber 1.83.01
#
DISCID=fc0d7614
DTITLE=All-time Country Favourites - All-time Country Favourites CD 3
DYEAR=2001
DGENRE=Country
TTITLE0=Jeannie C. Riley - Harper Valley P.T.A.
TTITLE1=Conway Twitty - It's Only Make Believe
TTITLE2=Johnny Paycheck - Take This Job And Shove It
TTITLE3=Don Williams - Tulsa Time (Live)
TTITLE4=Wanda Jackson - I Fall To Pieces
TTITLE5=Johnny Cash - I Walk The Line (Live)
TTITLE6=Jim Reeves - Have I Told You Lately That I Love You (Live)
TTITLE7=Don Gibson - Kaw-Liga
TTITLE8=Lynn Anderson - Desperado
TTITLE9=Charley Pride - The Happiness Of Having You (Live)
TTITLE10=George Jones - The Race Is On
TTITLE11=The Kendalls - Heaven's Just A Sin Away
TTITLE12=Johnny Lee - Lookin' For Love
TTITLE13=Patsy Cline - A Poor Man's Roses
TTITLE14=Faron Young - Apartment No. 9
TTITLE15=Bobby Bare - The Winner
TTITLE16=Sandy Posey - Born A Woman
TTITLE17=Hank Thompson - The Wild Side Of Life
TTITLE18=Merle Haggard - Today I Started Loving You Again (Live)
TTITLE19=Dottie West - D.I.V.O.R.C.E.
EXTD=YEAR: 2001
EXTT0=
EXTT1=
EXTT2=
EXTT3=
EXTT4=
EXTT5=
EXTT6=
EXTT7=
EXTT8=
EXTT9=
EXTT10=
EXTT11=
EXTT12=
EXTT13=
EXTT14=
EXTT15=
EXTT16=
EXTT17=
EXTT18=
EXTT19=
PLAYORDER=
